
<svg width="302" height="329" viewBox="0 0 302 329" fill="none" xmlns="http://www.w3.org/2000/svg">
<path d="M346.849 -47.9992C363.98 -22.1862 377.276 6.39135 390.497 34.374C396.25 46.5391 401.584 58.9836 405.758 71.8009C409.623 83.7353 412.914 96.4976 412.365 109.124C412.114 115.139 411.262 124.177 404.704 126.786C399.799 128.733 393.763 126.758 388.965 125.368C380.494 122.884 366.551 116.676 360.682 126.89C357.502 132.443 358.181 139.248 359.399 145.29C361.065 153.452 363.874 161.333 366.033 169.327C368.117 177.088 370.305 185.91 368.141 193.889C365.932 201.979 357.983 207.453 349.683 207.516C340.127 207.571 331.446 201.033 324.076 195.675C317.135 190.595 310.089 184.577 301.757 182C293.239 179.385 285.79 183.073 279.571 188.843C271.346 196.437 265.337 206.139 258.602 214.996C251.829 223.918 244.655 231.334 234.428 236.234C226.552 240.006 213.387 244.61 206.479 236.686C199.002 228.092 202.671 213.26 205.473 203.523C209.062 191.043 214.268 179.054 219.093 167.038C221.01 162.248 222.881 157.449 224.501 152.576C224.935 151.237 223.53 150.039 222.313 150.086C213.687 150.447 204.855 149.172 196.496 147.096C188.323 145.058 178.177 141.878 172.831 134.845C166.545 126.585 173.4 116.761 180.159 111.316C188.97 104.177 199.811 99.8352 209.805 94.6479C219.957 89.3954 231.399 82.8773 235.649 71.5681C236.056 70.4893 235.776 69.3459 234.659 68.7612C223.283 62.6535 210.691 58.1646 200.51 50.0476C196.648 46.9829 192.124 42.6264 192.488 37.2615C193.007 29.6559 201.987 24.0976 207.867 20.8941C217.972 15.3906 229.224 12.7497 240.244 9.82072C248.002 7.74065 260.075 6.68881 262.524 -2.85237C263.079 -5.03771 262.231 -6.12473 260.928 -7.71344C258.683 -10.5286 259.617 -14.2576 259.677 -17.7256C259.684 -19.585 259.28 -22.5412 260.337 -24.2157C261.487 -26.1133 264.888 -26.8136 266.829 -27.4661C278.972 -31.6697 291.582 -34.2096 303.995 -37.586C310.87 -39.4794 317.97 -40.6756 324.911 -42.411C332.307 -44.249 339.666 -46.2636 347.025 -48.2783C349.608 -48.9964 348.291 -52.9559 345.69 -52.2657C332.477 -48.6375 319.218 -45.2603 305.828 -42.32C299.463 -40.9291 293.183 -38.9898 286.864 -37.4688C280.546 -35.9479 274.218 -34.3804 268.049 -32.2738C263.543 -30.7545 257.15 -29.4658 255.866 -24.0909C255.229 -21.3662 255.521 -18.3355 255.451 -15.5463C255.4 -12.1248 254.764 -8.67498 256.971 -5.79475C257.371 -5.25586 258.469 -4.57812 258.489 -3.94592C258.613 -1.40786 254.007 1.71075 252.159 2.38178C246.863 4.34812 240.934 5.36672 235.452 6.81259C223.727 9.89092 211.862 13.1832 201.535 19.8026C195.972 23.359 189.715 28.7104 188.452 35.5636C187.493 40.7617 189.953 45.529 193.389 49.2821C203.695 60.5415 219.634 65.576 232.769 72.5654C232.423 71.6267 232.125 70.6972 231.779 69.7585C227.409 81.4304 214.674 87.522 204.234 92.7655C193.571 98.1579 181.616 103.003 173.281 111.88C167.425 118.133 163.442 127.368 168.101 135.425C172.63 143.287 182.312 147.22 190.551 149.779C200.696 152.959 211.797 154.735 222.449 154.27C221.723 153.424 221.015 152.607 220.261 151.78C216.272 163.842 210.889 175.385 206.426 187.28C202.342 198.236 198 210.01 197.971 221.845C197.957 231.533 201.328 242.064 211.751 244.575C221.412 246.909 232.049 242.502 240.324 237.818C250.28 232.213 257.202 223.755 263.909 214.675C270.551 205.679 276.94 195.037 286.309 188.614C294.926 182.694 303.26 186.359 311.15 191.651C319.356 197.176 326.886 203.919 335.862 208.244C344.131 212.235 353.121 213.082 361.331 208.482C368.287 204.599 372.172 197.809 372.811 189.961C374.217 172.527 364.249 156.768 362.523 139.774C362.014 134.912 362.431 127.455 368.145 125.814C373.19 124.378 379.356 126.91 384.117 128.366C394.505 131.546 408.388 135.494 413.807 122.678C417.772 113.294 416.695 101.794 414.98 92.0517C412.628 78.5819 408.184 65.5417 403.026 52.939C398.026 40.6338 392.236 28.6546 386.233 16.7779C378.663 1.71361 371.558 -13.6208 363.394 -28.3684C359.247 -35.8399 354.849 -43.1437 350.099 -50.252C348.822 -52.5845 345.339 -50.2571 346.849 -47.9992Z" fill="#DBDBDB"/>
<path d="M344.649 -52.376C336.429 -15.5887 318.688 18.4084 302.498 52.1345C294.019 69.7789 285.8 87.5718 277.032 105.086C267.783 123.568 258.356 141.966 249.414 160.606C244.521 170.772 239.777 181.041 235.302 191.411C233.069 196.573 230.902 201.772 228.827 206.99C226.67 212.384 225.228 217.945 223.116 223.348C222.162 225.841 225.902 227.697 226.883 225.186C228.587 220.74 229.724 216.109 231.446 211.692C233.308 206.939 235.234 202.224 237.235 197.499C241.237 188.049 245.462 178.693 249.836 169.438C258.759 150.529 268.26 131.879 277.621 113.202C286.74 95.0088 295.414 76.6298 304.18 58.2693C312.372 41.0993 320.834 24.0314 328.524 6.59223C336.769 -12.1862 344.242 -31.4567 348.712 -51.5428C349.359 -54.1931 345.24 -54.9891 344.649 -52.376Z" fill="#DBDBDB"/>
<path d="M267.346 187.859C266.369 180.124 265.595 172.334 265.017 164.534C264.353 155.702 263.745 146.712 264.458 137.888C264.622 135.843 262.352 134.497 260.821 136.125C250.667 146.863 238.913 155.929 228.946 166.825C227.127 168.807 230.301 171.565 232.119 169.583C242.087 158.687 253.841 149.622 263.994 138.884C262.785 138.28 261.548 137.696 260.357 137.12C259.608 146.13 260.123 155.222 260.806 164.203C261.393 172.198 262.177 180.184 263.183 188.142C263.503 190.791 267.685 190.536 267.346 187.859Z" fill="#DBDBDB"/>
<path d="M318.408 171.275C300.32 145.779 294.903 115.484 290.128 85.2439C289.95 84.0726 288.712 82.7627 287.383 83.3682C267.208 92.8598 246.623 101.375 226.382 110.709C223.939 111.818 225.246 115.824 227.717 114.696C247.958 105.363 268.543 96.8472 288.718 87.3556C287.806 86.7149 286.885 86.1207 285.973 85.4799C290.88 116.398 296.427 147.493 314.953 173.584C316.471 175.795 319.972 173.496 318.408 171.275Z" fill="#DBDBDB"/>
<path d="M346.521 110.827C330.026 87.8959 322.689 59.6106 315.669 32.6453C315.332 31.2975 313.584 30.8527 312.526 31.5602C294.167 43.5884 272.051 48.1262 253.702 60.1078C251.454 61.5694 253.755 65.0725 256.03 63.5922C274.361 51.5827 296.496 47.0728 314.855 35.0447C313.813 34.6923 312.753 34.312 311.711 33.9597C318.852 61.2875 326.339 89.9166 343.039 113.155C344.613 115.329 348.095 113.001 346.521 110.827Z" fill="#DBDBDB"/>
<path d="M366.231 62.0451C357.298 36.5597 345.068 12.4718 335.142 -12.6315C334.759 -13.626 333.568 -14.4431 332.481 -13.9587C313.457 -5.63964 291.808 -6.61558 273.129 2.7631C270.714 3.97386 273.071 7.43969 275.458 6.24755C293.737 -2.94482 315.136 -1.80133 333.798 -9.99923C332.895 -10.4447 332.04 -10.8809 331.137 -11.3264C341.073 13.7304 353.294 37.8649 362.226 63.3503C363.122 65.8969 367.108 64.5639 366.231 62.0451Z" fill="#DBDBDB"/>
<path d="M64.3719 113.265C90.8534 124.94 128.435 128.314 151.52 107.657C152.152 107.097 152.047 106.112 151.529 105.505C145.931 99.0787 137.174 95.648 129.352 92.7846C120.008 89.3511 110.821 87.1013 100.81 87.0089C91.5815 86.9202 83.4139 88.7328 75.1792 92.9441C71.0513 95.0438 67.1086 97.5024 63.2379 100.031C61.5168 101.166 59.7837 102.323 58.0715 103.492C56.8697 104.311 55.2409 104.996 54.5008 106.278C54.0641 107.034 54.3827 107.89 55.0523 108.333C57.9765 110.358 61.2866 111.568 64.3719 113.265C66.0783 114.195 67.6158 111.58 65.8884 110.639C62.8032 108.942 59.493 107.731 56.5777 105.739C56.7644 106.436 56.9512 107.132 57.1291 107.795C57.6265 106.933 60.0641 105.819 61.0273 105.171C62.6368 104.082 64.2673 103.007 65.8856 101.952C69.3819 99.6835 72.9501 97.4849 76.6736 95.6001C84.6156 91.5559 92.445 89.9404 101.345 90.0637C110.637 90.1888 119.113 92.3088 127.79 95.4412C135.339 98.1468 143.952 101.438 149.367 107.647C149.367 106.918 149.376 106.223 149.376 105.494C138.254 115.435 123.177 119.115 108.57 119.311C94.0166 119.51 79.2088 116.508 65.8674 110.627C64.1181 109.869 62.5806 112.483 64.3719 113.265Z" fill="#DBDBDB"/>
<path d="M59.663 108.165C75.2709 105.605 91.1181 104.864 106.916 105.131C113.717 105.248 120.484 105.036 127.286 104.957C134.393 104.885 141.736 105.034 148.479 107.582C150.298 108.268 151.072 105.325 149.253 104.639C142.754 102.203 135.649 101.884 128.796 101.905C121.497 101.922 114.236 102.213 106.935 102.088C90.8538 101.826 74.7955 102.641 58.9135 105.239C56.9579 105.567 57.7617 108.496 59.663 108.165Z" fill="#DBDBDB"/>
<path d="M140.125 107.775C123.833 111.229 107.269 115.057 90.4979 113.416C88.5626 113.223 88.5771 116.258 90.5124 116.45C107.521 118.117 124.372 114.229 140.896 110.713C142.813 110.307 142.03 107.389 140.125 107.775Z" fill="#DBDBDB"/>
<path d="M116.014 95.9273C106.453 94.8618 97.0681 96.1118 87.6284 97.5542C85.6972 97.8401 86.5009 100.77 88.4112 100.472C97.6308 99.0704 106.738 97.9123 116.041 98.9406C117.973 99.1875 117.937 96.1411 116.014 95.9273Z" fill="#DBDBDB"/>
<path d="M86.0544 108.973C81.9703 108.52 77.9364 107.592 73.8086 107.506C72.9837 107.479 72.297 108.231 72.3026 109.047C72.2961 109.883 73.007 110.546 73.844 110.553C77.9718 110.639 82.0057 111.567 86.0898 112.019C86.9115 112.102 87.6046 111.241 87.5958 110.479C87.5723 109.597 86.8639 109.076 86.0544 108.973Z" fill="#DBDBDB"/>
<path d="M37.6893 85.6721C66.689 84.1475 101.546 70.1466 112.886 41.2792C113.218 40.462 112.48 39.7 111.801 39.4198C103.784 36.1642 94.1988 37.1303 85.851 38.1384C76.6265 39.2567 68.0401 41.1637 59.5894 45.1663C51.1056 49.1779 44.3483 54.3263 38.6892 61.8459C35.7824 65.7152 33.2509 69.8572 30.8245 74.0598C29.7447 75.93 28.6739 77.8334 27.6151 79.7157C26.8718 81.0517 25.725 82.4068 25.6432 83.9566C25.6076 84.5525 26.1373 85.3346 26.7843 85.4279C30.4284 85.9629 34.0314 85.5495 37.6893 85.6721C39.6432 85.7355 39.6287 82.7012 37.6748 82.6378C34.3 82.5105 30.9017 82.958 27.5462 82.5057C27.9296 83.0072 28.304 83.4755 28.6873 83.977C28.7456 83.002 30.5468 80.7078 31.1412 79.6782C32.1393 77.9009 33.1374 76.1236 34.1775 74.3707C36.3823 70.6004 38.6922 66.8908 41.3264 63.3965C46.7372 56.2099 53.4297 51.4163 61.5302 47.6317C69.6186 43.8682 77.9001 42.1494 86.7057 41.1254C94.5804 40.2084 103.518 39.3446 111.036 42.3962C110.671 41.7654 110.315 41.1677 109.95 40.5369C104.487 54.4177 92.6301 64.4666 79.6755 71.2202C66.7661 77.944 52.2062 81.8937 37.6959 82.65C35.7323 82.7491 35.7467 85.7833 37.6893 85.6721Z" fill="#DBDBDB"/>
<path d="M30.8517 83.4335C44.02 73.8333 58.2024 65.8272 72.8716 58.7746C78.9178 55.8774 84.7578 52.6089 90.7054 49.5426C96.6862 46.4674 103.022 43.4572 109.776 42.7335C111.692 42.5229 111.698 39.5008 109.761 39.6993C96.4948 41.1176 85.1349 49.5765 73.3804 55.1739C58.0117 62.467 43.1054 70.7557 29.3451 80.7986C27.7866 81.9441 29.2932 84.579 30.8517 83.4335Z" fill="#DBDBDB"/>
<path d="M102.677 46.6762C89.8129 57.0123 76.8411 67.8747 61.2969 73.9178C59.4934 74.6136 60.264 77.5521 62.0796 76.8352C78.1576 70.596 91.5006 59.5277 104.821 48.8386C106.341 47.6146 104.185 45.4733 102.677 46.6762Z" fill="#DBDBDB"/>
<path d="M76.1642 46.8071C67.1321 50.1658 59.3235 55.4357 51.5197 60.9886C49.9402 62.122 51.4467 64.7569 53.0262 63.6235C60.5914 58.2411 68.18 53.0123 76.9469 49.7245C78.7714 49.0408 77.9887 46.1234 76.1642 46.8071Z" fill="#DBDBDB"/>
<path d="M55.3131 71.9482C51.3413 73.4375 47.2119 74.4715 43.3711 76.3166C42.6651 76.6655 42.3957 77.7147 42.7903 78.3909C43.2569 79.1366 44.1053 79.3182 44.8655 78.9726C45.8069 78.5075 46.5429 78.2039 47.4446 77.856C48.4127 77.4903 49.3897 77.1578 50.3666 76.8253C52.2753 76.1901 54.1807 75.6091 56.0715 74.9077C56.8164 74.6373 57.4157 73.8906 57.1392 73.0585C56.9556 72.3081 56.1243 71.6601 55.3131 71.9482Z" fill="#DBDBDB"/>
</svg>
